<?xml version="1.0" encoding="utf-8"?><!-- Uploaded to: SVG Repo, www.svgrepo.com, Generator: SVG Repo Mixer Tools -->
<svg fill="#000000" width="800px" height="800px" viewBox="0 0 24 24" id="document-error" data-name="Flat Color" xmlns="http://www.w3.org/2000/svg" class="icon flat-color"><path id="primary" d="M17.71,4.29l-2-2A1,1,0,0,0,15,2H4A2,2,0,0,0,2,4V20a2,2,0,0,0,2,2H16a2,2,0,0,0,2-2V5A1,1,0,0,0,17.71,4.29Z" style="fill: rgb(0, 0, 0);"></path><path id="secondary" d="M18,5H16a1,1,0,0,1-1-1V2a1,1,0,0,1,.71.29l2,2A1,1,0,0,1,18,5Zm3,14a1.5,1.5,0,1,0,1.5,1.5A1.5,1.5,0,0,0,21,19Zm1-3V13a1,1,0,0,0-2,0v3a1,1,0,0,0,2,0Z" style="fill: rgb(44, 169, 188);"></path></svg>