<?xml version="1.0" encoding="utf-8"?><!-- Uploaded to: SVG Repo, www.svgrepo.com, Generator: SVG Repo Mixer Tools -->
<svg fill="#000000" width="800px" height="800px" viewBox="0 0 24 24" id="document-error-left" data-name="Flat Line" xmlns="http://www.w3.org/2000/svg" class="icon flat-line"><path id="secondary" d="M18,3H7V5H5V20a1,1,0,0,0,1,1H18a1,1,0,0,0,1-1V4A1,1,0,0,0,18,3Z" style="fill: rgb(44, 169, 188); stroke-width: 2;"></path><path id="primary" d="M10,21h8a1,1,0,0,0,1-1V4a1,1,0,0,0-1-1H7L5,5V9" style="fill: none; stroke: rgb(0, 0, 0); stroke-linecap: round; stroke-linejoin: round; stroke-width: 2;"></path><path id="primary-2" data-name="primary" d="M5,5H7V3Zm0,8v3" style="fill: none; stroke: rgb(0, 0, 0); stroke-linecap: round; stroke-linejoin: round; stroke-width: 2;"></path><line id="primary-upstroke" x1="5.05" y1="20.5" x2="4.95" y2="20.5" style="fill: none; stroke: rgb(0, 0, 0); stroke-linecap: round; stroke-linejoin: round; stroke-width: 2.5;"></line></svg>